<svg width="16" height="16" viewBox="0 0 16 16" fill="none" xmlns="http://www.w3.org/2000/svg">
<path fill-rule="evenodd" clip-rule="evenodd" d="M3 15H2V1.29371H3C3.28363 1.6238 3.64283 1.89252 4.04839 2.06111C4.45395 2.22969 4.89443 2.3022 5.334 2.27273C6.13049 2.2247 6.90414 1.99324 7.592 1.5972C8.34263 1.23402 9.16328 1.03049 10 1C10.8185 1.00753 11.6215 1.21949 12.333 1.6158L13 2.04657V3.02559V8.9007V9.88364L12.333 9.45287C11.6219 9.05505 10.8189 8.84141 10 8.83217C9.27609 8.90422 8.57339 9.11337 7.931 9.44797C7.11984 9.83442 6.23289 10.0445 5.331 10.0638C4.49281 10.132 3.65947 9.88564 3 9.37455V14.9951V15ZM4.04938 8.91121C3.64413 8.74258 3.28476 8.48351 3 8.15469V2.61343C3.6851 3.06848 4.50908 3.27932 5.334 3.21063C6.23494 3.19142 7.12093 2.98133 7.931 2.59483C8.57308 2.2595 9.27593 2.05031 10 1.97902C10.7065 1.99862 11.3957 2.19767 12 2.55664L12.002 8.30154C11.3756 8.01459 10.6916 7.86041 10 7.85315C9.16311 7.88245 8.34221 8.08604 7.592 8.45035C6.90425 8.84663 6.13053 9.0781 5.334 9.12587C4.89456 9.15335 4.45464 9.07984 4.04938 8.91121Z" fill="#A1A5AC"/>
</svg>
