<svg width="16" height="16" viewBox="0 0 16 16" fill="none" xmlns="http://www.w3.org/2000/svg">
<g clip-path="url(#clip0_1143_5444)">
<path d="M8 16C6.41775 16 4.87103 15.5308 3.55544 14.6518C2.23985 13.7727 1.21447 12.5233 0.608967 11.0615C0.00346625 9.59966 -0.15496 7.99113 0.153721 6.43928C0.462403 4.88743 1.22433 3.46197 2.34315 2.34315C3.46197 1.22433 4.88743 0.462403 6.43928 0.153721C7.99113 -0.15496 9.59966 0.00346625 11.0615 0.608967C12.5233 1.21447 13.7727 2.23985 14.6518 3.55544C15.5308 4.87103 16 6.41775 16 8C15.9976 10.121 15.154 12.1545 13.6542 13.6542C12.1545 15.154 10.121 15.9976 8 16ZM8 1C6.61553 1 5.26216 1.41055 4.11101 2.17972C2.95987 2.94889 2.06266 4.04214 1.53285 5.32122C1.00303 6.6003 0.86441 8.00777 1.13451 9.36564C1.4046 10.7235 2.07129 11.9708 3.05026 12.9498C4.02922 13.9287 5.2765 14.5954 6.63437 14.8655C7.99224 15.1356 9.39971 14.997 10.6788 14.4672C11.9579 13.9373 13.0511 13.0401 13.8203 11.889C14.5895 10.7379 15 9.38447 15 8C14.9979 6.14414 14.2597 4.36489 12.9474 3.05259C11.6351 1.7403 9.85587 1.00212 8 1Z" fill="#A1A5AC"/>
<path d="M8.667 8.656H4V7.656H7.667V2H8.667V7.656V8.655V8.656Z" fill="#A1A5AC"/>
</g>
<defs>
<clipPath id="clip0_1143_5444">
<rect width="16" height="16" fill="white"/>
</clipPath>
</defs>
</svg>
