<svg width="18" height="17" viewBox="0 0 18 17" fill="currentColor" xmlns="http://www.w3.org/2000/svg">
<path d="M0.90918 6.94629C0.90918 10.5986 3.88086 13.5703 7.5332 13.5703C8.97754 13.5703 10.2974 13.1055 11.3848 12.3252L15.4688 16.4175C15.6597 16.6084 15.9087 16.6997 16.1743 16.6997C16.7388 16.6997 17.1289 16.2764 17.1289 15.7202C17.1289 15.4546 17.0293 15.2139 16.855 15.0396L12.7959 10.9556C13.6509 9.84326 14.1572 8.45703 14.1572 6.94629C14.1572 3.29395 11.1855 0.322266 7.5332 0.322266C3.88086 0.322266 0.90918 3.29395 0.90918 6.94629ZM2.32861 6.94629C2.32861 4.07422 4.66113 1.7417 7.5332 1.7417C10.4053 1.7417 12.7378 4.07422 12.7378 6.94629C12.7378 9.81836 10.4053 12.1509 7.5332 12.1509C4.66113 12.1509 2.32861 9.81836 2.32861 6.94629Z"/>
</svg>
