<svg width="16" height="16" viewBox="0 0 16 16" fill="none" xmlns="http://www.w3.org/2000/svg">
<path d="M5 15.999H3V14.6651C2.82345 14.6648 2.6542 14.5946 2.52936 14.4697C2.40452 14.3449 2.33426 14.1757 2.334 13.9991V11.3333C2.334 11.1566 2.40414 10.9871 2.52901 10.862C2.65388 10.737 2.82327 10.6666 3 10.6663H4V9.6664C4.02602 8.86017 4.36531 8.09584 4.94581 7.53572C5.52632 6.97561 6.30231 6.66382 7.109 6.66658H8.892C9.69852 6.66408 10.4743 6.97598 11.0545 7.53607C11.6348 8.09616 11.974 8.86034 12 9.6664V10.6663H13C13.1768 10.6666 13.3463 10.737 13.4713 10.862C13.5964 10.987 13.6667 11.1565 13.667 11.3333V13.9991C13.6667 14.1758 13.5963 14.3452 13.4713 14.4701C13.3462 14.595 13.1767 14.6651 13 14.6651V15.999H11V14.6651H5V15.999ZM3 13.3332V13.9891H13V13.3332H10.5V13.3222C10.4997 13.2338 10.4644 13.1491 10.4018 13.0867C10.3392 13.0242 10.2544 12.9892 10.166 12.9892H5.833C5.74468 12.9892 5.65998 13.0243 5.59753 13.0867C5.53508 13.1492 5.5 13.2339 5.5 13.3222V13.3332H3ZM11.834 11.4063C11.6857 11.4065 11.5408 11.4506 11.4176 11.5332C11.2944 11.6157 11.1984 11.7329 11.1418 11.8699C11.0852 12.007 11.0705 12.1578 11.0995 12.3032C11.1286 12.4486 11.2001 12.5821 11.305 12.6869C11.41 12.7917 11.5436 12.863 11.689 12.8919C11.8345 12.9207 11.9853 12.9058 12.1222 12.849C12.2592 12.7922 12.3763 12.6961 12.4587 12.5728C12.541 12.4495 12.585 12.3045 12.585 12.1562C12.5847 11.9572 12.5055 11.7665 12.3647 11.6259C12.2239 11.4853 12.033 11.4063 11.834 11.4063ZM4.147 11.4063C3.99866 11.4063 3.85366 11.4503 3.73032 11.5327C3.60699 11.6151 3.51086 11.7322 3.45409 11.8692C3.39732 12.0063 3.38247 12.1571 3.41141 12.3025C3.44035 12.448 3.51178 12.5817 3.61667 12.6865C3.72156 12.7914 3.8552 12.8628 4.00068 12.8918C4.14617 12.9207 4.29697 12.9059 4.43401 12.8491C4.57106 12.7923 4.68819 12.6962 4.7706 12.5729C4.85301 12.4496 4.897 12.3046 4.897 12.1562C4.89673 11.9572 4.81749 11.7665 4.67668 11.6259C4.53587 11.4853 4.345 11.4063 4.146 11.4063H4.147ZM8 7.66652C5 7.66652 5 9.12343 5 10.6663H11V10.6553C11.0782 9.94459 10.9479 9.22645 10.625 8.58846C10.2 7.9595 9.368 7.66652 8 7.66652ZM1 14.9901H0V5.99063H3.34L3.334 0H10.334V3.98975H16V14.9891H15V4.99969H10.333V5.99963H9.333V0.999938H4.333L4.325 6.99956H1V14.9891V14.9901ZM14 8.99044H13V7.9905H14V8.99044ZM3 8.99044H2V7.9905H3V8.99044ZM14 6.99056H13V5.99063H14V6.99056ZM8.333 4.99969H7.333V3.99975H8.333V4.99969ZM6.333 4.99969H5.333V3.99975H6.333V4.99969ZM8.333 2.99981H7.333V1.99988H8.333V2.99981ZM6.333 2.99981H5.333V1.98988L6.333 1.99988V2.99981Z" fill="#A1A5AC"/>
</svg>
